{"title":"Harry Potter and the Deathly Hallows Part 2 2011 TS UnKnOwN","uid":6542390,"size":1228831446,"categoryP":"video","categoryS":"movies","magnet":"?xt=urn:btih:9e18e692491b3a545fed2e56dfff8eeeb86c9fa5&amp;dn=Harry+Potter+and+the+Deathly+Hallows+Part+2+2011+TS+UnKnOwN&amp;tr=udp%3A%2F%2Ftracker.openbittorrent.com%3A80&amp;tr=udp%3A%2F%2Fopen.demonii.com%3A1337&amp;tr=udp%3A%2F%2Ftracker.coppersurfer.tk%3A6969&amp;tr=udp%3A%2F%2Fexodus.desync.com%3A6969","seeders":16,"leechers":2,"uploader":"HeroMaster","files":-1,"time":1310738611,"description":":::::: UnKnOwN Presents ::::::\n\n\n:::: Harry Potter and the Deathly Hallows Part 2 2011 TS ::::\n\n\n::NOTES::\n\n\nEncoded By .......:UnKnOwN \nRelease Date ......... 2011\nRuntime ..........:1:57 \nSource ......... Russian TS/IMAGINE\nIMDb URL .........:http://www.imdb.com/title/tt1201607/ \nFile Type ......... Single AVI\nLanguage .........:English \nPS3 Compatible ....... Why dont You complain in comments and let me know(:\nFile Size ........:1.13gb \nGenre ......... Fantasy/Nerd Haven\n\n\n::Video::\n\n\nID: 0\nFormat: MPEG-4 Visual\nFormat profile: Advanced Simple@L5\nFormat settings, BVOP: Yes\nFormat settings, QPel: No\nFormat settings, GMC: No warppoints\nFormat settings, Matrix: Custom\nCodec ID: XVID\nCodec ID/Hint: XviD\nDuration: 51h 57mn\nBit rate: 1 146 Kbps\nWidth: 660 pixels\nHeight: 274 pixels\nDisplay aspect ratio: 2.40:1\nFrame rate: 25.000 fps\nColor space: YUV\nChroma subsampling: 4:2:0\nBit depth: 8 bits\nScan type: Progressive\nBits/(Pixel*Frame): 0.253\nStream size: 44.7 MiB (4%)\nWriting library: XviD 1.2.1 (UTC 2008-12-04)\n\n\n::Audio::\n\n\nID: 1\nFormat: MPEG Audio\nCodec ID: 55\nCodec ID/Hint: MP3\nDuration: 1h 57mn\nBit rate: 128 Kbps\nChannel(s): 2 channels\nSampling rate: 44.1 KHz\nStream size: 107 MiB (9%)\nAlignment: Aligned on interleaves\n\n\n::SYSPNOSIS::\n\n\nThe final chapter begins as Harry, Ron, and Hermione continue their \nquest of finding and destroying the Dark Lord's three remaining Horcruxes.\n\n\n::RELEASE INFO::\n\n\nUsed the russian ts seems it has less of a flicker then the cam but colors \nwere dead and had a lot of noise primarily focused on the dark scenes since majority of the movie is dark,fixed the colors,denoiser.smooth bla bla\nOn to audio is IMAGINES line not much syncing needed about 25 cuts,2 \nSamples included.\n\n\n::More Information::\n\n &lt;a href=&quot;\nhttp://leetleech.org/images/70683557842626252231.png&quot; rel=&quot;nofollow&quot; target=&quot;_NEW&quot;&gt;\nhttp://leetleech.org/images/70683557842626252231.png&lt;/a&gt;\n\n\n::Screens::\n\n &lt;a href=&quot;\nhttp://leetleech.org/images/06322206267340942565.png&quot; rel=&quot;nofollow&quot; target=&quot;_NEW&quot;&gt;\nhttp://leetleech.org/images/06322206267340942565.png&lt;/a&gt;\n &lt;a href=&quot;\nhttp://leetleech.org/images/01989719080691083339.png&quot; rel=&quot;nofollow&quot; target=&quot;_NEW&quot;&gt;\nhttp://leetleech.org/images/01989719080691083339.png&lt;/a&gt;\n &lt;a href=&quot;\nhttp://leetleech.org/images/68902536297682547537.png&quot; rel=&quot;nofollow&quot; target=&quot;_NEW&quot;&gt;\nhttp://leetleech.org/images/68902536297682547537.png&lt;/a&gt;\n\n\nENJOY!","torrent":{"xt":"urn:btih:9e18e692491b3a545fed2e56dfff8eeeb86c9fa5","amp;dn":"Harry+Potter+and+the+Deathly+Hallows+Part+2+2011+TS+UnKnOwN","amp;tr":["udp%3A%2F%2Ftracker.openbittorrent.com%3A80","udp%3A%2F%2Fopen.demonii.com%3A1337","udp%3A%2F%2Ftracker.coppersurfer.tk%3A6969","udp%3A%2F%2Fexodus.desync.com%3A6969"],"infoHash":"9e18e692491b3a545fed2e56dfff8eeeb86c9fa5","infoHashBuffer":{"type":"Buffer","data":[158,24,230,146,73,27,58,84,95,237,46,86,223,255,142,238,184,108,159,165]},"announce":[],"urlList":[]}}